<?xml version="1.0" encoding="UTF-8"?>
<svg version="1.1" viewBox="0 0 2048 1474" width="1280" height="1280" xmlns="http://www.w3.org/2000/svg">
<path transform="translate(1524,97)" d="m0 0h23l34 3 22 4 23 6 29 10 25 11 21 11 19 12 15 11 14 11 13 12 8 7 7 7 7 8 9 10 10 13 13 18 11 18 12 23 8 19 9 27 6 25 4 23 3 26 1 18v30l-2 26-4 26-6 25-11 32-11 24-11 21-13 21-14 19-11 13-11 12-14 14-11 9-14 11-18 12-21 12-25 12-24 9-23 7-29 7-31 5-32 3-17 1-112 1-60 1h-217l-6-3-5-5-2-6-1-20v-42l2-11 6-7 9-3 29-1 107 1h119l164-2 29-5 32-8 21-7 19-8 20-11 15-10 12-9 11-9 15-14 9-11 9-12 9-15 8-16 8-20 6-21 5-28 2-19v-44l-4-27-5-19-8-22-9-20-12-22-11-16-8-10-12-14-7-7-11-9-13-10-20-12-21-10-30-10-23-5-23-3-11-1h-38l-23 3-22 5-21 7-20 9-19 11-17 12-13 11-12 11-10 11-10 13-11 17-8 14-11 25-7 21-6 25-4 27-2 25-1 34-1 106-3 6-6 5-6 2h-58l-8-4-5-6-2-7v-138l2-35 3-27 5-30 8-31 10-26 7-16 12-22 9-14 12-17 9-11 12-14 21-21 11-9 12-10 20-14 22-13 22-11 23-9 26-8 29-6 25-3z" fill="#5385AC"/>
<path transform="translate(771,692)" d="m0 0h72l10 2 6 7 2 7v67l-3 7-6 5-11 2-363 1-41 1-30 3-26 5-24 7-21 8-17 8-17 10-15 10-14 11-10 9-15 15-10 13-11 17-10 19-8 21-6 21-4 20-3 25v42l3 24 6 25 9 25 12 25 11 18 10 14 9 11 12 13 7 7 11 9 12 9 13 8 21 11 21 8 21 6 21 4 27 3h38l23-3 23-5 24-8 22-10 17-10 17-12 15-13 14-14 11-14 10-14 12-21 10-22 8-24 6-27 4-28 2-27 1-128 2-9 4-6 6-4 3-1h59l8 4 5 6 1 3 1 51v81l-2 40-3 34-4 26-7 27-8 23-11 25-11 21-13 20-12 16-9 11-11 12-18 18-11 9-12 10-18 13-20 12-23 12-24 10-28 9-29 6-29 3h-52l-26-3-24-5-29-9-25-10-16-8-19-10-22-14-17-13-11-9-10-9-12-11-14-15-11-14-10-13-10-15-9-15-12-23-8-19-8-25-6-24-5-30-2-19-1-19v-28l2-28 4-25 6-24 11-33 11-24 11-21 14-22 10-14 11-14 11-12 10-11 8-7 10-9 20-15 19-12 22-12 20-9 27-10 29-8 35-7 31-4 30-2 57-1z" fill="#5385AC"/>
<path transform="translate(955,389)" d="m0 0h69l8 3 6 7 2 5 1 10 1 367-2 8-5 8-6 5-5 2-13 1h-42l-11-1-9-4-7-8-2-5-1-7-1-127v-241l3-10 5-8z" fill="#42A5BA"/>
<path transform="translate(1125,905)" d="m0 0h13l15 2 7 4 5 7 6 21 12 46 13 48 4 4 3-10 15-56 12-46 5-12 5-5 5-2 6-1h26l10 3 5 5 3 5 2 14v155l-2 13-4 7-6 4-10 1-8-4-5-6-3-9-1-12v-91l-1-19-1-3-8 24-9 37-15 59-5 13-7 8-7 3h-11l-8-3-7-8-4-10-17-65-12-46-5-14-2-1-1 134-5 8-6 4-3 1h-9l-8-5-4-6-2-7v-172l3-7 5-5 8-4z" fill="#42A5BA"/>
<path transform="translate(1718,967)" d="m0 0h21l10 3 17 9 7-1 15-8 10-3h22l12 4 11 7 9 9 7 11 5 15 2 19v58l-1 12-4 4h-31l-5-4-1-60-2-23-5-8-8-3-9 1-7 4-3 9-1 78-2 4-3 2h-29l-4-2-3-7-1-76-3-8-7-4h-13l-6 4-4 10-1 9-1 70-4 4-6 1h-18l-8-2-3-4-1-5v-71l2-15 5-13 7-11 7-7 11-7 10-4z" fill="#42A5BA"/>
<path transform="translate(1561,967)" d="m0 0h15l12 3 12 6 11 9 9 10 8 16 2 7v7l-4 6-14 7-36 14-14 5-6 3 1 6 4 3 9 2 13-1 11-4 11-7 10-10 7 1 9 8 9 11 1 3-4 8-9 10-9 7-15 7-15 5-11 2h-18l-15-4-13-7-13-11-8-11-5-10-4-13-2-16v-11l3-16 5-12 7-9 4-5 12-9 10-5 13-4zm-4 37-8 3-7 8-2 7 1 9 4 5 8-2 23-10 3-3-1-7-8-7-7-3z" fill="#42A5BA"/>
<path transform="translate(1391,973)" d="m0 0h25l11 3 16 8 11 10 9 14 6 18v9l-6 7-10 4-55 17-6 2 1 6 10 5 4 1h13l11-4 12-7 10-7 5 1 9 10 6 12v7l-5 8-13 8-14 6-16 4-7 1h-23l-12-3-15-8-12-11-8-11-5-11-4-14-1-7v-19l4-17 7-13 9-10 7-7 13-8zm5 36-8 3-7 8-2 8v8l4 3 10-1 23-8 3-3-1-6-7-8-5-3z" fill="#42A5BA"/>
<path transform="translate(987 1e3)" d="m0 0h9l14 3 10 5 10 8 8 10 6 13 2 9v13l-4 14-6 10-9 10-10 7-12 5-5 1h-18l-12-4-10-6-10-9-7-11-4-10-2-10 1-14 4-12 6-10 7-8 10-7 8-4z" fill="#42A5BA"/>
<path transform="translate(986,855)" d="m0 0h10l11 2 16 8 10 9 8 13 4 12 1 12-3 15-6 12-9 11-10 7-14 5-4 1h-20l-12-4-10-6-11-11-7-13-3-13v-12l3-13 7-13 8-9 11-7 9-4z" fill="#42A5BA"/>
</svg>
